Coordinates
version=1
nRows=13
nColumns=40
inDegrees=yes

Units are S.I. units (second, meters, Newtons, ...)
If the header above contains a line with 'inDegrees', this indicates whether rotational values are in degrees (yes) or radians (no).

endheader
time	pelvis_tilt	pelvis_list	pelvis_rotation	pelvis_tx	pelvis_ty	pelvis_tz	hip_flexion_r	hip_adduction_r	hip_rotation_r	knee_angle_r	knee_angle_r_beta	ankle_angle_r	subtalar_angle_r	mtp_angle_r	hip_flexion_l	hip_adduction_l	hip_rotation_l	knee_angle_l	knee_angle_l_beta	ankle_angle_l	subtalar_angle_l	mtp_angle_l	lumbar_extension	lumbar_bending	lumbar_rotation	arm_flex_r	arm_add_r	arm_rot_r	elbow_flex_r	pro_sup_r	wrist_flex_r	wrist_dev_r	arm_flex_l	arm_add_l	arm_rot_l	elbow_flex_l	pro_sup_l	wrist_flex_l	wrist_dev_l
      0.61500000	      0.59776195	     -3.73562264	     -6.33433342	      0.11488682	      0.92150133	      0.28331059	    -14.19585832	      3.14301199	    -14.91522967	      7.18642080	      0.12542670	      9.89111356	     12.16246974	      0.00000000	     26.34620720	    -13.86070298	    -25.25351709	     17.08346093	      0.29816264	      1.12171728	      9.24706701	      0.00000000	     -3.25769783	      3.24431393	      1.34583618	     43.93726101	    -15.77007880	     43.93726101	     75.29990525	     44.98654978	      0.00000000	      0.00000000	     43.93726101	    -15.77007880	     43.93726101	     75.29990525	     44.98654978	      0.00000000	      0.00000000
      0.62000000	      0.44720412	     -3.98086429	     -6.32190069	      0.12135779	      0.91996211	      0.28253011	    -14.44667518	      3.27693973	    -15.15171989	      7.33745598	      0.12806277	     10.07079225	     12.51832382	      0.00000000	     26.62434068	    -13.92907250	    -25.37818457	     15.78871822	      0.27556512	      1.09702450	     10.71272789	      0.00000000	     -3.19203119	      3.50589979	      1.14741145	     43.93894194	    -15.76806639	     43.93894194	     75.29837227	     44.98673992	      0.00000000	      0.00000000	     43.93894194	    -15.76806639	     43.93894194	     75.29837227	     44.98673992	      0.00000000	      0.00000000
      0.62500000	      0.24950534	     -4.20334701	     -6.34719081	      0.12786445	      0.91829383	      0.28183454	    -14.63342693	      3.37635960	    -15.30306929	      7.51212891	      0.13111138	     10.25035732	     12.89523387	      0.00000000	     26.94899477	    -14.00507383	    -25.48561734	     14.58811867	      0.25461070	      1.02153884	     12.05480791	      0.00000000	     -3.03656189	      3.71498071	      0.95848087	     43.94052166	    -15.76617703	     43.94052166	     75.29693649	     44.98691645	      0.00000000	      0.00000000	     43.94052166	    -15.76617703	     43.94052166	     75.29693649	     44.98691645	      0.00000000	      0.00000000
      0.63000000	      0.07376692	     -4.39404996	     -6.36911128	      0.13443506	      0.91668410	      0.28107322	    -14.83030111	      3.42572483	    -15.49417318	      7.71105628	      0.13458332	     10.40714377	     13.27910160	      0.00000000	     27.23875618	    -14.04320990	    -25.58481481	     13.46258731	      0.23496647	      0.94909405	     13.32696047	      0.00000000	     -2.90090640	      3.88642044	      0.76765867	     43.94212072	    -15.76426646	     43.94212072	     75.29548815	     44.98709295	      0.00000000	      0.00000000	     43.94212072	    -15.76426646	     43.94212072	     75.29548815	     44.98709295	      0.00000000	      0.00000000
      0.63500000	     -0.07397443	     -4.54783021	     -6.38656845	      0.14107321	      0.91514362	      0.28025401	    -15.04003985	      3.42143181	    -15.70849052	      7.94474107	      0.13866189	     10.55183837	     13.68051256	      0.00000000	     27.48590386	    -14.03955942	    -25.66675942	     12.42021652	      0.21677367	      0.87263765	     14.50601952	      0.00000000	     -2.77988482	      4.01461352	      0.57443802	     43.94378722	    -15.76227729	     43.94378722	     75.29398384	     44.98727467	      0.00000000	      0.00000000	     43.94378722	    -15.76227729	     43.94378722	     75.29398384	     44.98727467	      0.00000000	      0.00000000
      0.64000000	     -0.24670898	     -4.68059972	     -6.41410315	      0.14776194	      0.91354246	      0.27942471	    -15.22154577	      3.39749096	    -15.83500197	      8.17895051	      0.14274962	     10.64836564	     14.03542406	      0.00000000	     27.75670457	    -14.01764887	    -25.67928252	     11.48048930	      0.20037234	      0.82566637	     15.53289828	      0.00000000	     -2.61189774	      4.14946864	      0.38474936	     43.94509486	    -15.76071787	     43.94509486	     75.29280711	     44.98741570	      0.00000000	      0.00000000	     43.94509486	    -15.76071787	     43.94509486	     75.29280711	     44.98741570	      0.00000000	      0.00000000
      0.64500000	     -0.31146711	     -4.74477945	     -6.41709840	      0.15455242	      0.91224881	      0.27843659	    -15.46884008	      3.24287704	    -16.18423558	      8.51257535	      0.14857247	     10.79026030	     14.52475810	      0.00000000	     27.86176865	    -13.89644656	    -25.74864711	     10.54999749	      0.18413219	      0.70491248	     16.55388773	      0.00000000	     -2.61196655	      4.15908545	      0.16648996	     43.94718541	    -15.75822733	     43.94718541	     75.29093242	     44.98763836	      0.00000000	      0.00000000	     43.94718541	    -15.75822733	     43.94718541	     75.29093242	     44.98763836	      0.00000000	      0.00000000
      0.65000000	     -0.39792947	     -4.68356762	     -6.44553001	      0.16143187	      0.91087546	      0.27748734	    -15.62163821	      2.91060109	    -16.62423783	      8.99264121	      0.15695120	     10.97927795	     15.21445289	      0.00000000	     27.96591283	    -13.65790362	    -25.81767179	      9.71692686	      0.16959237	      0.56933899	     17.28074702	      0.00000000	     -2.49633794	      3.99182470	     -0.07429230	     43.95077618	    -15.75395695	     43.95077618	     75.28773156	     44.98801273	      0.00000000	      0.00000000	     43.95077618	    -15.75395695	     43.95077618	     75.28773156	     44.98801273	      0.00000000	      0.00000000
      0.65500000	     -0.54271255	     -4.74810838	     -6.48246889	      0.16832848	      0.90937694	      0.27652350	    -15.85742915	      2.80583635	    -16.57036522	      9.15899530	      0.15985462	     10.93880370	     15.32451211	      0.00000000	     28.26957840	    -13.62945622	    -25.86571414	      9.31955629	      0.16265694	      0.68796237	     17.53951127	      0.00000000	     -2.35079089	      4.12288457	     -0.18566716	     43.95122970	    -15.75341833	     43.95122970	     75.28732912	     44.98805927	      0.00000000	      0.00000000	     43.95122970	    -15.75341833	     43.95122970	     75.28732912	     44.98805927	      0.00000000	      0.00000000
      0.66000000	     -0.60455999	     -4.80449649	     -6.56079753	      0.17528728	      0.90813287	      0.27571432	    -16.21043473	      2.69513897	    -16.57061848	      9.23396719	      0.16116313	     10.92433649	     15.32384483	      0.00000000	     28.53484845	    -13.66091616	    -25.85996847	      9.24730986	      0.16139600	      0.69933290	     17.55507030	      0.00000000	     -2.35313721	      4.11858202	     -0.18522440	     43.95124639	    -15.75339857	     43.95124639	     75.28731442	     44.98806096	      0.00000000	      0.00000000	     43.95124639	    -15.75339857	     43.95124639	     75.28731442	     44.98806096	      0.00000000	      0.00000000
      0.66500000	     -0.66552328	     -4.84518105	     -6.54815851	      0.18242473	      0.90695367	      0.27449048	    -16.37837845	      2.48061846	    -16.74317844	      9.76726499	      0.17047093	     10.79081893	     15.69122448	      0.00000000	     28.36998012	    -13.42331736	    -25.57136114	      8.21261922	      0.14333725	      0.70841379	     18.63275574	      0.00000000	     -2.24931633	      4.12850582	     -0.44285188	     43.95280850	    -15.75154440	     43.95280850	     75.28593115	     44.98822001	      0.00000000	      0.00000000	     43.95280850	    -15.75154440	     43.95280850	     75.28593115	     44.98822001	      0.00000000	      0.00000000
      0.67000000	     -0.75051449	     -4.89635379	     -6.62241947	      0.18955992	      0.90571274	      0.27359731	    -16.70616672	      2.36103870	    -16.73680922	      9.83781402	      0.17170225	     10.77419929	     15.69077199	      0.00000000	     28.56789241	    -13.44237014	    -25.56543887	      8.16726165	      0.14254561	      0.71402005	     18.63503663	      0.00000000	     -2.24158025	      4.13318180	     -0.44772482	     43.95282371	    -15.75152642	     43.95282371	     75.28591781	     44.98822153	      0.00000000	      0.00000000	     43.95282371	    -15.75152642	     43.95282371	     75.28591781	     44.98822153	      0.00000000	      0.00000000
      0.67500000	     -0.75159766	     -4.86265342	     -6.61918734	      0.19687165	      0.90469397	      0.27231918	    -17.06939921	      2.11849722	    -16.51205441	     10.08313083	      0.17598383	     10.60851551	     15.77255488	      0.00000000	     28.60412349	    -13.28763174	    -25.54729919	      8.10155594	      0.14139883	      0.75510953	     18.66725811	      0.00000000	     -2.04988673	      4.22352530	     -0.52725351	     43.95297775	    -15.75134372	     43.95297775	     75.28578175	     44.98823709	      0.00000000	      0.00000000	     43.95297775	    -15.75134372	     43.95297775	     75.28578175	     44.98823709	      0.00000000	      0.00000000
